<svg xmlns="http://www.w3.org/2000/svg" xmlns:svg="http://www.w3.org/2000/svg" xmlns:xlink="http://www.w3.org/1999/xlink" id="svg2" width="230" height="230" x="0" y="0" enable-background="new 0 0 230 230" version="1.1" viewBox="0 0 230 230" xml:space="preserve"><g id="g10" transform="matrix(1.25,0,0,-1.25,0,229.99999)"><g id="g12" transform="matrix(0.14704825,0,0,0.14704825,0,-66.754179)"><path id="path24" fill="#FBC707" d="M625.646 1548.821L269.3 1588.285L0 1705.233h312.812 L625.646 1548.8"/><path id="path26" fill="#FBC707" d="M625.646 1548.821l364.507 31.304l261.139 125.108H938.458 L625.646 1548.8"/><path id="path28" fill="#F68712" d="M625.646 610.373l340.025-12.241l285.621-144.171H938.458 L625.646 610.4"/><path id="path30" fill="#F25C19" d="M625.646 610.373H282.901L0 453.962h312.812 L625.646 610.4"/><path id="path32" fill="#FFF200" d="M156.406 1079.592V750.464L0 453.962v312.812 L156.406 1079.6"/><path id="path34" fill="#FFF200" d="M156.406 1079.592l-25.837 326.44L0 1705.233v-312.81 L156.406 1079.6"/><path id="path36" fill="#F1471D" d="M1094.859 1079.592l34.024 342.761l122.409 282.88v-312.81 L1094.859 1079.6"/><path id="path38" fill="#F1471D" d="M1094.859 1079.592l28.583-367.211l127.849-258.419v312.812 L1094.859 1079.6"/><path id="path16" fill="#FAB20B" d="M0 1705.233l625.646-156.412l-100.647-398.488 l-368.593-70.741L0 1705.2"/><path id="path18" fill="#F47216" d="M1251.292 1705.233l-156.433-625.641l-420.25 76.2 l-48.964 393.048L1251.292 1705.2"/><path id="path20" fill="#F25C19" d="M1251.292 453.962L625.646 610.373l70.725 414.8 l398.488 54.388L1251.292 454"/><path id="path22" fill="#F89C0E" d="M0 453.962l156.406 625.63l376.753-84.31l92.487-384.908 L0 454"/><path id="path14" fill="#F68712" d="M625.646 1548.821l-469.24-469.229l469.24-469.219 l469.213 469.219L625.646 1548.8"/></g></g></svg>